HIERARCHY
ROOT Hips
{
	OFFSET -0.179506 -22.333345 2.821913
	CHANNELS 6 Xposition Yposition Zposition Zrotation Yrotation Xrotation 
	JOINT LeftUpLeg
	{
		OFFSET 6.951974 -9.140623 -0.681533
		CHANNELS 3 Zrotation Yrotation Xrotation
		JOINT LeftLeg
		{
			OFFSET 3.427654 -37.519855 -0.449580
			CHANNELS 3 Zrotation Yrotation Xrotation
			JOINT LeftFoot
			{
				OFFSET -1.359570 -39.796059 -4.369333
				CHANNELS 3 Zrotation Yrotation Xrotation
				JOINT LeftToe
				{
					OFFSET 2.635814 -5.579078 11.928840
					CHANNELS 3 Zrotation Yrotation Xrotation
					End Site
					{
						OFFSET 0.000000 0.000000 0.000000
					}
				}
			}
		}
	}
	JOINT RightUpLeg
	{
		OFFSET -6.767048 -9.052170 -0.431982
		CHANNELS 3 Zrotation Yrotation Xrotation
		JOINT RightLeg
		{
			OFFSET -3.829005 -38.256897 -0.885003
			CHANNELS 3 Zrotation Yrotation Xrotation
			JOINT RightFoot
			{
				OFFSET 1.577377 -39.841461 -4.231180
				CHANNELS 3 Zrotation Yrotation Xrotation
				JOINT RightToe
				{
					OFFSET -2.537174 -4.814398 12.334795
					CHANNELS 3 Zrotation Yrotation Xrotation
					End Site
					{
						OFFSET 0.000000 0.000000 0.000000
					}
				}
			}
		}
	}
	JOINT Spine
	{
		OFFSET -0.253288 10.896323 -2.669631
		CHANNELS 3 Zrotation Yrotation Xrotation
		JOINT Spine1
		{
			OFFSET 0.548704 13.518043 0.109247
			CHANNELS 3 Zrotation Yrotation Xrotation
			JOINT Spine2
			{
				OFFSET 0.145701 5.292222 2.542457
				CHANNELS 3 Zrotation Yrotation Xrotation
				JOINT Neck
				{
					OFFSET -0.277840 21.387037 -4.285703
					CHANNELS 3 Zrotation Yrotation Xrotation
					JOINT Head
					{
						OFFSET 0.515184 6.496960 5.134897
						CHANNELS 3 Zrotation Yrotation Xrotation
						End Site
						{
							OFFSET 0.000000 0.000000 0.000000
						}
					}
				}
				JOINT LeftShoulder
				{
					OFFSET 7.884473 12.174932 -3.408961
					CHANNELS 3 Zrotation Yrotation Xrotation
					JOINT LeftArm
					{
						OFFSET 9.097692 3.046888 -0.886815
						CHANNELS 3 Zrotation Yrotation Xrotation
						JOINT LeftForeArm
						{
							OFFSET 25.961220 -1.277207 -2.745643
							CHANNELS 3 Zrotation Yrotation Xrotation
							JOINT LeftHand
							{
								OFFSET 24.923361 0.898606 -0.117091
								CHANNELS 3 Zrotation Yrotation Xrotation
								End Site
								{
									OFFSET 0.000000 0.000000 0.000000
								}
							}
						}
					}
				}
				JOINT RightShoulder
				{
					OFFSET -8.175920 11.883285 -3.861528
					CHANNELS 3 Zrotation Yrotation Xrotation
					JOINT RightArm
					{
						OFFSET -9.601238 3.255117 -0.914307
						CHANNELS 3 Zrotation Yrotation Xrotation
						JOINT RightForeArm
						{
							OFFSET -25.374195 -1.332924 -2.140099
							CHANNELS 3 Zrotation Yrotation Xrotation
							JOINT RightHand
							{
								OFFSET -25.529810 0.777228 -0.555919
								CHANNELS 3 Zrotation Yrotation Xrotation
								End Site
								{
									OFFSET 0.000000 0.000000 0.000000
								}
							}
						}
					}
				}
			}
		}
	}
}
MOTION
Frames: 10
Frame Time: 0.033333
337.003204 -333.857971 88.773056 -139.634536 -0.061582 87.809969 -0.424508 3.083439 3.225160 -4.275619 -1.458519 13.460882 6.869893 23.284705 -26.670877 nan nan nan -4.212112 -1.005428 -25.167029 7.629762 -6.792320 47.322396 3.871332 -4.774486 -4.469655 nan nan nan -1.370782 -1.044277 4.390950 3.765347 -0.320073 9.057372 -1.280157 1.012641 -6.506295 0.839083 -5.939325 3.852819 2.387378 -3.782260 2.383385 -26.009640 1.869376 -1.358933 -56.978714 -4.156232 18.799457 5.117780 -22.321840 -2.894791 -10.533649 -10.593603 3.658660 26.977592 7.124989 1.895878 52.942517 4.898900 16.246415 -0.262276 20.105085 -1.462531 5.956711 11.349425 -5.787833 
337.051453 -333.851807 88.980453 -139.120517 -0.122061 88.015553 -0.263528 3.095566 2.659313 -4.235652 -0.912563 13.161501 7.244119 23.261238 -25.203121 nan nan nan -4.415936 -1.695185 -26.204782 7.366838 -7.963726 48.663142 3.628059 -5.379762 -2.722232 nan nan nan -1.540880 -1.104870 4.073582 3.853220 -0.371995 9.235761 -1.490004 0.754498 -7.142157 0.609524 -7.747032 2.255625 1.044411 -5.118008 5.772684 -26.470179 1.874521 -0.740980 -56.364620 -4.264800 18.846473 5.131435 -22.336281 -2.767191 -10.398416 -9.697256 4.234852 28.059300 6.795491 2.043987 52.557199 4.241468 16.346769 -0.782592 20.653194 -2.169143 5.741571 10.697990 -5.452978 
336.995605 -334.084839 89.065742 -140.262361 -0.334634 88.268618 -0.796442 2.696393 2.838224 -4.152300 -1.498071 12.864679 7.325286 23.035519 -25.037899 nan nan nan -4.449201 -1.712672 -26.354655 7.184505 -8.046205 48.123755 3.594327 -5.515159 -2.490609 nan nan nan -1.385165 -0.869408 3.904994 3.639550 0.015841 9.573589 -1.657935 1.022653 -7.496688 0.670510 -7.581701 2.007001 0.921294 -5.019663 6.034887 -26.755933 2.129500 -1.134241 -56.422103 -4.018589 19.142610 5.364220 -22.276716 -2.906857 -10.323908 -9.743183 4.696692 28.094866 6.835767 2.189913 52.480053 4.284075 16.521579 -0.752394 20.874599 -2.418087 5.715432 10.972302 -5.348897 
336.978668 -334.162506 89.137039 -140.384651 -0.375241 88.355299 -0.987028 2.314467 2.847182 -4.049831 -1.926824 12.843891 7.273759 22.696211 -25.040534 nan nan nan -4.522794 -1.539692 -26.259035 7.209487 -7.681228 47.685115 3.724761 -5.161301 -2.251598 nan nan nan -1.247267 -0.791218 3.852793 3.538013 0.040452 9.902156 -1.684798 1.002475 -7.880661 0.530812 -7.534730 1.941483 0.880619 -4.950580 6.291079 -27.133532 2.033478 -1.328021 -56.149212 -3.656183 19.152256 5.666071 -22.401244 -2.833671 -11.717296 -10.011451 5.994137 28.234839 6.724863 2.338489 51.217980 3.529338 16.447389 -0.029426 21.921103 -1.136763 8.009661 11.880914 -3.485219 
336.966736 -334.174927 89.178680 -140.324063 -0.382566 88.383121 -1.068461 2.309876 2.730603 -4.114445 -1.605432 13.241847 7.298205 22.761887 -25.119976 nan nan nan -4.501394 -1.532534 -26.092923 7.164995 -7.698656 47.372030 3.683518 -5.205589 -2.179486 nan nan nan -1.180135 -0.766575 3.790594 3.484478 -0.001360 9.952102 -1.707541 0.963601 -7.838366 0.592346 -7.480986 1.934514 0.825950 -4.878568 6.298783 -27.132905 1.960326 -1.342331 -56.329950 -3.639997 19.121651 5.943481 -22.419889 -3.124712 -12.032641 -9.898333 5.962947 28.048586 6.691840 2.275947 51.384208 3.265851 16.496825 0.113479 22.698535 -1.012958 8.464196 11.942911 -3.818542 
336.939606 -334.110138 89.189514 -140.019007 -0.598436 87.957653 -1.328213 2.322049 3.201409 -4.052306 -1.252521 13.194460 7.478199 23.093585 -25.317623 nan nan nan -4.639728 -1.771463 -25.291561 6.942315 -7.940951 47.123354 3.649980 -5.369903 -2.532168 nan nan nan -1.394229 -0.510275 3.513334 3.557038 -0.209842 10.952376 -1.728257 0.706981 -7.724875 0.556171 -7.481032 1.838271 0.819305 -5.098501 6.035803 -27.271156 1.728398 -0.507143 -56.661425 -4.774755 18.535213 7.011610 -22.127675 -3.583004 -12.963477 -9.556835 6.785448 28.781597 5.989386 2.285028 52.887080 2.796059 15.217339 -3.987294 24.251912 -3.344200 8.673407 11.345344 -2.581531 
336.950043 -334.110168 89.230026 -139.977120 -0.626163 87.962623 -1.316122 2.535497 3.125117 -4.029197 -0.784386 13.403170 7.473102 23.302096 -25.619148 nan nan nan -4.610895 -1.600768 -25.139160 6.863582 -7.854133 46.860374 3.723371 -5.339864 -2.471925 nan nan nan -1.443373 -0.463570 3.367358 3.562809 -0.217967 11.321908 -1.798783 0.699476 -8.001255 0.774932 -7.292665 2.050381 0.806966 -5.408578 5.797594 -27.368813 1.448172 -0.200393 -56.142270 -4.529492 18.743286 7.140536 -21.636310 -2.172016 -13.174694 -11.592289 6.381725 28.731178 6.046197 2.178483 53.712820 2.361058 15.125442 -5.735395 23.958565 -3.448940 6.576610 11.556858 -2.189527 
336.961975 -334.199371 89.252922 -140.115797 -0.677615 88.080209 -1.412593 2.421418 3.006185 -3.997954 -0.785263 13.414793 7.482386 23.172662 -25.497314 nan nan nan -4.617918 -1.567558 -25.063724 6.858219 -7.763671 46.446541 3.698107 -5.329386 -2.504469 nan nan nan -1.341916 -0.397749 3.378559 3.452697 -0.155092 11.205276 -1.851357 0.707862 -8.023678 0.749573 -7.269217 1.964520 0.737474 -5.403448 5.967890 -27.354920 1.461285 -0.312333 -56.109828 -4.443933 18.859439 7.105603 -21.706353 -2.145382 -13.567785 -11.774520 6.306549 28.604739 6.101141 2.146195 53.715661 2.244966 15.330434 -5.287183 24.276738 -3.281047 7.362031 11.697149 -2.641797 
336.965637 -334.256592 89.271896 -140.244357 -0.672631 88.065509 -1.473773 2.255586 3.100354 -4.001677 -1.062801 13.400020 7.470408 22.971109 -25.513664 nan nan nan -4.639246 -1.497609 -24.882179 6.951020 -7.543917 46.108620 3.699532 -5.160369 -2.585018 nan nan nan -1.239504 -0.358650 3.408508 3.386225 -0.132983 11.315038 -1.850417 0.748106 -8.100697 0.662202 -7.212579 2.022204 0.734269 -5.315896 6.069122 -27.425153 1.375791 -0.439288 -55.962407 -4.378894 18.865302 6.978261 -21.782268 -2.397617 -14.351414 -11.747609 6.511104 28.554957 6.361781 2.234991 53.373003 2.247648 15.506226 -4.351820 24.512310 -3.176859 9.105030 11.973136 -3.164298 
336.943756 -334.268860 89.288750 -140.206033 -0.654230 88.035418 -1.462450 2.179808 3.198022 -3.971618 -1.198040 13.265311 7.469101 22.863987 -25.478304 nan nan nan -4.649507 -1.463530 -24.699186 7.018913 -7.379494 45.891508 3.711575 -5.034276 -2.647844 nan nan nan -1.187908 -0.365180 3.426492 3.350573 -0.157577 11.316217 -1.849134 0.739381 -8.094978 0.679723 -7.189470 2.052910 0.717148 -5.216881 6.295536 -27.454094 1.407637 -0.505421 -56.044939 -4.412580 18.800033 7.087394 -21.786177 -2.740839 -14.640664 -11.605692 6.725195 28.537793 6.392217 2.265744 53.240606 2.306818 15.573858 -3.903179 24.602795 -3.153102 10.202391 12.067186 -3.331094 
